<svg width="1363" height="163" viewBox="0 0 1363 163" fill="none" xmlns="http://www.w3.org/2000/svg">
<path d="M0 15C0 6.71573 6.71573 0 15 0H37V163H15C6.71573 163 0 156.284 0 148V15Z" fill="#424242"/>
<rect width="1097" height="163" transform="translate(37)" fill="#F0F0F0"/>
<path d="M101.906 53.9219L94.3945 51.2383V48.0859L104.602 52.375V54.6367L101.906 53.9219ZM94.3945 56.1719L101.918 53.4297L104.602 52.7852V55.0352L94.3945 59.3242V56.1719ZM116.414 43.9375V61H112.898V43.9375H116.414ZM126.633 43.9375L119.871 52.3633L115.969 56.5586L115.336 53.2305L117.973 49.6211L122.32 43.9375H126.633ZM122.637 61L117.609 53.1133L120.211 50.9336L126.797 61H122.637ZM131.32 51.0859V61H127.945V48.3203H131.121L131.32 51.0859ZM135.141 48.2383L135.082 51.3672C134.918 51.3438 134.719 51.3242 134.484 51.3086C134.258 51.2852 134.051 51.2734 133.863 51.2734C133.387 51.2734 132.973 51.3359 132.621 51.4609C132.277 51.5781 131.988 51.7539 131.754 51.9883C131.527 52.2227 131.355 52.5078 131.238 52.8438C131.129 53.1797 131.066 53.5625 131.051 53.9922L130.371 53.7812C130.371 52.9609 130.453 52.207 130.617 51.5195C130.781 50.8242 131.02 50.2188 131.332 49.7031C131.652 49.1875 132.043 48.7891 132.504 48.5078C132.965 48.2266 133.492 48.0859 134.086 48.0859C134.273 48.0859 134.465 48.1016 134.66 48.1328C134.855 48.1562 135.016 48.1914 135.141 48.2383ZM135.844 54.7891V54.543C135.844 53.6133 135.977 52.7578 136.242 51.9766C136.508 51.1875 136.895 50.5039 137.402 49.9258C137.91 49.3477 138.535 48.8984 139.277 48.5781C140.02 48.25 140.871 48.0859 141.832 48.0859C142.793 48.0859 143.648 48.25 144.398 48.5781C145.148 48.8984 145.777 49.3477 146.285 49.9258C146.801 50.5039 147.191 51.1875 147.457 51.9766C147.723 52.7578 147.855 53.6133 147.855 54.543V54.7891C147.855 55.7109 147.723 56.5664 147.457 57.3555C147.191 58.1367 146.801 58.8203 146.285 59.4062C145.777 59.9844 145.152 60.4336 144.41 60.7539C143.668 61.0742 142.816 61.2344 141.855 61.2344C140.895 61.2344 140.039 61.0742 139.289 60.7539C138.547 60.4336 137.918 59.9844 137.402 59.4062C136.895 58.8203 136.508 58.1367 136.242 57.3555C135.977 56.5664 135.844 55.7109 135.844 54.7891ZM139.219 54.543V54.7891C139.219 55.3203 139.266 55.8164 139.359 56.2773C139.453 56.7383 139.602 57.1445 139.805 57.4961C140.016 57.8398 140.289 58.1094 140.625 58.3047C140.961 58.5 141.371 58.5977 141.855 58.5977C142.324 58.5977 142.727 58.5 143.062 58.3047C143.398 58.1094 143.668 57.8398 143.871 57.4961C144.074 57.1445 144.223 56.7383 144.316 56.2773C144.418 55.8164 144.469 55.3203 144.469 54.7891V54.543C144.469 54.0273 144.418 53.543 144.316 53.0898C144.223 52.6289 144.07 52.2227 143.859 51.8711C143.656 51.5117 143.387 51.2305 143.051 51.0273C142.715 50.8242 142.309 50.7227 141.832 50.7227C141.355 50.7227 140.949 50.8242 140.613 51.0273C140.285 51.2305 140.016 51.5117 139.805 51.8711C139.602 52.2227 139.453 52.6289 139.359 53.0898C139.266 53.543 139.219 54.0273 139.219 54.543ZM153.305 50.9453V61H149.918V48.3203H153.094L153.305 50.9453ZM152.836 54.2148H151.898C151.898 53.332 152.004 52.5195 152.215 51.7773C152.434 51.0273 152.75 50.3789 153.164 49.832C153.586 49.2773 154.105 48.8477 154.723 48.543C155.34 48.2383 156.055 48.0859 156.867 48.0859C157.43 48.0859 157.945 48.1719 158.414 48.3438C158.883 48.5078 159.285 48.7695 159.621 49.1289C159.965 49.4805 160.23 49.9414 160.418 50.5117C160.605 51.0742 160.699 51.75 160.699 52.5391V61H157.324V52.9141C157.324 52.3359 157.246 51.8906 157.09 51.5781C156.934 51.2656 156.711 51.0469 156.422 50.9219C156.141 50.7969 155.801 50.7344 155.402 50.7344C154.965 50.7344 154.582 50.8242 154.254 51.0039C153.934 51.1836 153.668 51.4336 153.457 51.7539C153.246 52.0664 153.09 52.4336 152.988 52.8555C152.887 53.2773 152.836 53.7305 152.836 54.2148ZM160.383 53.8281L159.176 53.9805C159.176 53.1523 159.277 52.3828 159.48 51.6719C159.691 50.9609 160 50.3359 160.406 49.7969C160.82 49.2578 161.332 48.8398 161.941 48.543C162.551 48.2383 163.254 48.0859 164.051 48.0859C164.66 48.0859 165.215 48.1758 165.715 48.3555C166.215 48.5273 166.641 48.8047 166.992 49.1875C167.352 49.5625 167.625 50.0547 167.812 50.6641C168.008 51.2734 168.105 52.0195 168.105 52.9023V61H164.719V52.9023C164.719 52.3164 164.641 51.8711 164.484 51.5664C164.336 51.2539 164.117 51.0391 163.828 50.9219C163.547 50.7969 163.211 50.7344 162.82 50.7344C162.414 50.7344 162.059 50.8164 161.754 50.9805C161.449 51.1367 161.195 51.3555 160.992 51.6367C160.789 51.918 160.637 52.2461 160.535 52.6211C160.434 52.9883 160.383 53.3906 160.383 53.8281ZM177.562 58.1406V52.4922C177.562 52.0859 177.496 51.7383 177.363 51.4492C177.23 51.1523 177.023 50.9219 176.742 50.7578C176.469 50.5938 176.113 50.5117 175.676 50.5117C175.301 50.5117 174.977 50.5781 174.703 50.7109C174.43 50.8359 174.219 51.0195 174.07 51.2617C173.922 51.4961 173.848 51.7734 173.848 52.0938H170.473C170.473 51.5547 170.598 51.043 170.848 50.5586C171.098 50.0742 171.461 49.6484 171.938 49.2812C172.414 48.9062 172.98 48.6133 173.637 48.4023C174.301 48.1914 175.043 48.0859 175.863 48.0859C176.848 48.0859 177.723 48.25 178.488 48.5781C179.254 48.9062 179.855 49.3984 180.293 50.0547C180.738 50.7109 180.961 51.5312 180.961 52.5156V57.9414C180.961 58.6367 181.004 59.207 181.09 59.6523C181.176 60.0898 181.301 60.4727 181.465 60.8008V61H178.055C177.891 60.6562 177.766 60.2266 177.68 59.7109C177.602 59.1875 177.562 58.6641 177.562 58.1406ZM178.008 53.2773L178.031 55.1875H176.145C175.699 55.1875 175.312 55.2383 174.984 55.3398C174.656 55.4414 174.387 55.5859 174.176 55.7734C173.965 55.9531 173.809 56.1641 173.707 56.4062C173.613 56.6484 173.566 56.9141 173.566 57.2031C173.566 57.4922 173.633 57.7539 173.766 57.9883C173.898 58.2148 174.09 58.3945 174.34 58.5273C174.59 58.6523 174.883 58.7148 175.219 58.7148C175.727 58.7148 176.168 58.6133 176.543 58.4102C176.918 58.207 177.207 57.957 177.41 57.6602C177.621 57.3633 177.73 57.082 177.738 56.8164L178.629 58.2461C178.504 58.5664 178.332 58.8984 178.113 59.2422C177.902 59.5859 177.633 59.9102 177.305 60.2148C176.977 60.5117 176.582 60.7578 176.121 60.9531C175.66 61.1406 175.113 61.2344 174.48 61.2344C173.676 61.2344 172.945 61.0742 172.289 60.7539C171.641 60.4258 171.125 59.9766 170.742 59.4062C170.367 58.8281 170.18 58.1719 170.18 57.4375C170.18 56.7734 170.305 56.1836 170.555 55.668C170.805 55.1523 171.172 54.7188 171.656 54.3672C172.148 54.0078 172.762 53.7383 173.496 53.5586C174.23 53.3711 175.082 53.2773 176.051 53.2773H178.008Z" fill="#888888"/>
<path d="M114.117 84.875H122.344V107.164C122.344 109.82 121.789 112.07 120.68 113.914C119.57 115.742 118.016 117.125 116.016 118.062C114.016 119 111.664 119.469 108.961 119.469C106.289 119.469 103.938 119 101.906 118.062C99.8906 117.125 98.3125 115.742 97.1719 113.914C96.0469 112.07 95.4844 109.82 95.4844 107.164V84.875H103.734V107.164C103.734 108.57 103.938 109.719 104.344 110.609C104.75 111.484 105.344 112.125 106.125 112.531C106.906 112.938 107.852 113.141 108.961 113.141C110.086 113.141 111.031 112.938 111.797 112.531C112.562 112.125 113.141 111.484 113.531 110.609C113.922 109.719 114.117 108.57 114.117 107.164V84.875ZM136.266 84.875V119H128.062V84.875H136.266ZM172.523 84.875H180.75V107.164C180.75 109.82 180.195 112.07 179.086 113.914C177.977 115.742 176.422 117.125 174.422 118.062C172.422 119 170.07 119.469 167.367 119.469C164.695 119.469 162.344 119 160.312 118.062C158.297 117.125 156.719 115.742 155.578 113.914C154.453 112.07 153.891 109.82 153.891 107.164V84.875H162.141V107.164C162.141 108.57 162.344 109.719 162.75 110.609C163.156 111.484 163.75 112.125 164.531 112.531C165.312 112.938 166.258 113.141 167.367 113.141C168.492 113.141 169.438 112.938 170.203 112.531C170.969 112.125 171.547 111.484 171.938 110.609C172.328 109.719 172.523 108.57 172.523 107.164V84.875ZM193.078 84.875L198.656 96.2188L204.234 84.875H213.609L204.094 101.797L213.867 119H204.398L198.656 107.445L192.914 119H183.422L193.219 101.797L183.68 84.875H193.078Z" fill="black"/>
<path d="M1134 0H1348C1356.28 0 1363 6.71573 1363 15V148C1363 156.284 1356.28 163 1348 163H1134V0Z" fill="#4A1FB3"/>
<path d="M1248.5 111.917C1244.51 111.917 1240.55 111.13 1236.86 109.601C1233.17 108.073 1229.82 105.832 1226.99 103.008C1221.29 97.3036 1218.08 89.567 1218.08 81.5C1218.08 73.433 1221.29 65.6964 1226.99 59.9922C1232.7 54.2879 1240.43 51.0833 1248.5 51.0833C1265.23 51.0833 1278.92 63.25 1278.92 78.4583C1278.92 83.2985 1276.99 87.9405 1273.57 91.363C1270.15 94.7856 1265.51 96.7083 1260.67 96.7083H1255.19C1254.28 96.7083 1253.67 97.3167 1253.67 98.2292C1253.67 98.5333 1253.97 98.8375 1253.97 99.1417C1255.19 100.662 1255.8 102.487 1255.8 104.312C1256.1 108.571 1252.76 111.917 1248.5 111.917ZM1248.5 57.1667C1242.05 57.1667 1235.86 59.7303 1231.29 64.2937C1226.73 68.8571 1224.17 75.0464 1224.17 81.5C1224.17 87.9536 1226.73 94.1429 1231.29 98.7063C1235.86 103.27 1242.05 105.833 1248.5 105.833C1249.41 105.833 1250.02 105.225 1250.02 104.312C1250.02 103.704 1249.72 103.4 1249.72 103.096C1248.5 101.575 1247.89 100.054 1247.89 98.2292C1247.89 93.9708 1251.24 90.625 1255.5 90.625H1260.67C1263.89 90.625 1266.99 89.3432 1269.27 87.0615C1271.55 84.7798 1272.83 81.6851 1272.83 78.4583C1272.83 66.5958 1261.88 57.1667 1248.5 57.1667ZM1231.77 75.4167C1234.2 75.4167 1236.33 77.5458 1236.33 79.9792C1236.33 82.4125 1234.2 84.5417 1231.77 84.5417C1229.34 84.5417 1227.21 82.4125 1227.21 79.9792C1227.21 77.5458 1229.34 75.4167 1231.77 75.4167ZM1240.9 63.25C1243.33 63.25 1245.46 65.3792 1245.46 67.8125C1245.46 70.2458 1243.33 72.375 1240.9 72.375C1238.46 72.375 1236.33 70.2458 1236.33 67.8125C1236.33 65.3792 1238.46 63.25 1240.9 63.25ZM1256.1 63.25C1258.54 63.25 1260.67 65.3792 1260.67 67.8125C1260.67 70.2458 1258.54 72.375 1256.1 72.375C1253.67 72.375 1251.54 70.2458 1251.54 67.8125C1251.54 65.3792 1253.67 63.25 1256.1 63.25ZM1265.23 75.4167C1267.66 75.4167 1269.79 77.5458 1269.79 79.9792C1269.79 82.4125 1267.66 84.5417 1265.23 84.5417C1262.8 84.5417 1260.67 82.4125 1260.67 79.9792C1260.67 77.5458 1262.8 75.4167 1265.23 75.4167Z" fill="white"/>
</svg>
