<svg width="1363" height="163" viewBox="0 0 1363 163" fill="none" xmlns="http://www.w3.org/2000/svg">
<path d="M0 15C0 6.71573 6.71573 0 15 0H37V163H15C6.71573 163 0 156.284 0 148V15Z" fill="#424242"/>
<rect width="1097" height="163" transform="translate(37)" fill="#F0F0F0"/>
<path d="M101.906 53.9219L94.3945 51.2383V48.0859L104.602 52.375V54.6367L101.906 53.9219ZM94.3945 56.1719L101.918 53.4297L104.602 52.7852V55.0352L94.3945 59.3242V56.1719ZM116.414 43.9375V61H112.898V43.9375H116.414ZM126.633 43.9375L119.871 52.3633L115.969 56.5586L115.336 53.2305L117.973 49.6211L122.32 43.9375H126.633ZM122.637 61L117.609 53.1133L120.211 50.9336L126.797 61H122.637ZM131.32 51.0859V61H127.945V48.3203H131.121L131.32 51.0859ZM135.141 48.2383L135.082 51.3672C134.918 51.3438 134.719 51.3242 134.484 51.3086C134.258 51.2852 134.051 51.2734 133.863 51.2734C133.387 51.2734 132.973 51.3359 132.621 51.4609C132.277 51.5781 131.988 51.7539 131.754 51.9883C131.527 52.2227 131.355 52.5078 131.238 52.8438C131.129 53.1797 131.066 53.5625 131.051 53.9922L130.371 53.7812C130.371 52.9609 130.453 52.207 130.617 51.5195C130.781 50.8242 131.02 50.2188 131.332 49.7031C131.652 49.1875 132.043 48.7891 132.504 48.5078C132.965 48.2266 133.492 48.0859 134.086 48.0859C134.273 48.0859 134.465 48.1016 134.66 48.1328C134.855 48.1562 135.016 48.1914 135.141 48.2383ZM135.844 54.7891V54.543C135.844 53.6133 135.977 52.7578 136.242 51.9766C136.508 51.1875 136.895 50.5039 137.402 49.9258C137.91 49.3477 138.535 48.8984 139.277 48.5781C140.02 48.25 140.871 48.0859 141.832 48.0859C142.793 48.0859 143.648 48.25 144.398 48.5781C145.148 48.8984 145.777 49.3477 146.285 49.9258C146.801 50.5039 147.191 51.1875 147.457 51.9766C147.723 52.7578 147.855 53.6133 147.855 54.543V54.7891C147.855 55.7109 147.723 56.5664 147.457 57.3555C147.191 58.1367 146.801 58.8203 146.285 59.4062C145.777 59.9844 145.152 60.4336 144.41 60.7539C143.668 61.0742 142.816 61.2344 141.855 61.2344C140.895 61.2344 140.039 61.0742 139.289 60.7539C138.547 60.4336 137.918 59.9844 137.402 59.4062C136.895 58.8203 136.508 58.1367 136.242 57.3555C135.977 56.5664 135.844 55.7109 135.844 54.7891ZM139.219 54.543V54.7891C139.219 55.3203 139.266 55.8164 139.359 56.2773C139.453 56.7383 139.602 57.1445 139.805 57.4961C140.016 57.8398 140.289 58.1094 140.625 58.3047C140.961 58.5 141.371 58.5977 141.855 58.5977C142.324 58.5977 142.727 58.5 143.062 58.3047C143.398 58.1094 143.668 57.8398 143.871 57.4961C144.074 57.1445 144.223 56.7383 144.316 56.2773C144.418 55.8164 144.469 55.3203 144.469 54.7891V54.543C144.469 54.0273 144.418 53.543 144.316 53.0898C144.223 52.6289 144.07 52.2227 143.859 51.8711C143.656 51.5117 143.387 51.2305 143.051 51.0273C142.715 50.8242 142.309 50.7227 141.832 50.7227C141.355 50.7227 140.949 50.8242 140.613 51.0273C140.285 51.2305 140.016 51.5117 139.805 51.8711C139.602 52.2227 139.453 52.6289 139.359 53.0898C139.266 53.543 139.219 54.0273 139.219 54.543ZM153.305 50.9453V61H149.918V48.3203H153.094L153.305 50.9453ZM152.836 54.2148H151.898C151.898 53.332 152.004 52.5195 152.215 51.7773C152.434 51.0273 152.75 50.3789 153.164 49.832C153.586 49.2773 154.105 48.8477 154.723 48.543C155.34 48.2383 156.055 48.0859 156.867 48.0859C157.43 48.0859 157.945 48.1719 158.414 48.3438C158.883 48.5078 159.285 48.7695 159.621 49.1289C159.965 49.4805 160.23 49.9414 160.418 50.5117C160.605 51.0742 160.699 51.75 160.699 52.5391V61H157.324V52.9141C157.324 52.3359 157.246 51.8906 157.09 51.5781C156.934 51.2656 156.711 51.0469 156.422 50.9219C156.141 50.7969 155.801 50.7344 155.402 50.7344C154.965 50.7344 154.582 50.8242 154.254 51.0039C153.934 51.1836 153.668 51.4336 153.457 51.7539C153.246 52.0664 153.09 52.4336 152.988 52.8555C152.887 53.2773 152.836 53.7305 152.836 54.2148ZM160.383 53.8281L159.176 53.9805C159.176 53.1523 159.277 52.3828 159.48 51.6719C159.691 50.9609 160 50.3359 160.406 49.7969C160.82 49.2578 161.332 48.8398 161.941 48.543C162.551 48.2383 163.254 48.0859 164.051 48.0859C164.66 48.0859 165.215 48.1758 165.715 48.3555C166.215 48.5273 166.641 48.8047 166.992 49.1875C167.352 49.5625 167.625 50.0547 167.812 50.6641C168.008 51.2734 168.105 52.0195 168.105 52.9023V61H164.719V52.9023C164.719 52.3164 164.641 51.8711 164.484 51.5664C164.336 51.2539 164.117 51.0391 163.828 50.9219C163.547 50.7969 163.211 50.7344 162.82 50.7344C162.414 50.7344 162.059 50.8164 161.754 50.9805C161.449 51.1367 161.195 51.3555 160.992 51.6367C160.789 51.918 160.637 52.2461 160.535 52.6211C160.434 52.9883 160.383 53.3906 160.383 53.8281ZM177.562 58.1406V52.4922C177.562 52.0859 177.496 51.7383 177.363 51.4492C177.23 51.1523 177.023 50.9219 176.742 50.7578C176.469 50.5938 176.113 50.5117 175.676 50.5117C175.301 50.5117 174.977 50.5781 174.703 50.7109C174.43 50.8359 174.219 51.0195 174.07 51.2617C173.922 51.4961 173.848 51.7734 173.848 52.0938H170.473C170.473 51.5547 170.598 51.043 170.848 50.5586C171.098 50.0742 171.461 49.6484 171.938 49.2812C172.414 48.9062 172.98 48.6133 173.637 48.4023C174.301 48.1914 175.043 48.0859 175.863 48.0859C176.848 48.0859 177.723 48.25 178.488 48.5781C179.254 48.9062 179.855 49.3984 180.293 50.0547C180.738 50.7109 180.961 51.5312 180.961 52.5156V57.9414C180.961 58.6367 181.004 59.207 181.09 59.6523C181.176 60.0898 181.301 60.4727 181.465 60.8008V61H178.055C177.891 60.6562 177.766 60.2266 177.68 59.7109C177.602 59.1875 177.562 58.6641 177.562 58.1406ZM178.008 53.2773L178.031 55.1875H176.145C175.699 55.1875 175.312 55.2383 174.984 55.3398C174.656 55.4414 174.387 55.5859 174.176 55.7734C173.965 55.9531 173.809 56.1641 173.707 56.4062C173.613 56.6484 173.566 56.9141 173.566 57.2031C173.566 57.4922 173.633 57.7539 173.766 57.9883C173.898 58.2148 174.09 58.3945 174.34 58.5273C174.59 58.6523 174.883 58.7148 175.219 58.7148C175.727 58.7148 176.168 58.6133 176.543 58.4102C176.918 58.207 177.207 57.957 177.41 57.6602C177.621 57.3633 177.73 57.082 177.738 56.8164L178.629 58.2461C178.504 58.5664 178.332 58.8984 178.113 59.2422C177.902 59.5859 177.633 59.9102 177.305 60.2148C176.977 60.5117 176.582 60.7578 176.121 60.9531C175.66 61.1406 175.113 61.2344 174.48 61.2344C173.676 61.2344 172.945 61.0742 172.289 60.7539C171.641 60.4258 171.125 59.9766 170.742 59.4062C170.367 58.8281 170.18 58.1719 170.18 57.4375C170.18 56.7734 170.305 56.1836 170.555 55.668C170.805 55.1523 171.172 54.7188 171.656 54.3672C172.148 54.0078 172.762 53.7383 173.496 53.5586C174.23 53.3711 175.082 53.2773 176.051 53.2773H178.008Z" fill="#888888"/>
<path d="M114.117 84.875H122.344V107.164C122.344 109.82 121.789 112.07 120.68 113.914C119.57 115.742 118.016 117.125 116.016 118.062C114.016 119 111.664 119.469 108.961 119.469C106.289 119.469 103.938 119 101.906 118.062C99.8906 117.125 98.3125 115.742 97.1719 113.914C96.0469 112.07 95.4844 109.82 95.4844 107.164V84.875H103.734V107.164C103.734 108.57 103.938 109.719 104.344 110.609C104.75 111.484 105.344 112.125 106.125 112.531C106.906 112.938 107.852 113.141 108.961 113.141C110.086 113.141 111.031 112.938 111.797 112.531C112.562 112.125 113.141 111.484 113.531 110.609C113.922 109.719 114.117 108.57 114.117 107.164V84.875ZM134.906 99.0547V119H127.008V93.6406H134.414L134.906 99.0547ZM133.969 105.453L132.117 105.5C132.117 103.562 132.352 101.836 132.82 100.32C133.289 98.7891 133.953 97.4922 134.812 96.4297C135.672 95.3672 136.695 94.5625 137.883 94.0156C139.086 93.4531 140.422 93.1719 141.891 93.1719C143.062 93.1719 144.133 93.3438 145.102 93.6875C146.086 94.0312 146.93 94.5859 147.633 95.3516C148.352 96.1172 148.898 97.1328 149.273 98.3984C149.664 99.6484 149.859 101.195 149.859 103.039V119H141.914V103.016C141.914 102 141.773 101.227 141.492 100.695C141.211 100.148 140.805 99.7734 140.273 99.5703C139.742 99.3672 139.094 99.2656 138.328 99.2656C137.516 99.2656 136.828 99.4219 136.266 99.7344C135.703 100.047 135.25 100.484 134.906 101.047C134.578 101.594 134.336 102.242 134.18 102.992C134.039 103.742 133.969 104.562 133.969 105.453ZM162.586 93.6406V119H154.664V93.6406H162.586ZM154.195 87.1016C154.195 85.9766 154.602 85.0547 155.414 84.3359C156.227 83.6172 157.281 83.2578 158.578 83.2578C159.875 83.2578 160.93 83.6172 161.742 84.3359C162.555 85.0547 162.961 85.9766 162.961 87.1016C162.961 88.2266 162.555 89.1484 161.742 89.8672C160.93 90.5859 159.875 90.9453 158.578 90.9453C157.281 90.9453 156.227 90.5859 155.414 89.8672C154.602 89.1484 154.195 88.2266 154.195 87.1016ZM180.82 93.6406V99.125H165.539V93.6406H180.82ZM168.75 87.3359H176.648V110.727C176.648 111.398 176.727 111.922 176.883 112.297C177.039 112.656 177.305 112.914 177.68 113.07C178.07 113.211 178.586 113.281 179.227 113.281C179.68 113.281 180.055 113.273 180.352 113.258C180.648 113.227 180.93 113.188 181.195 113.141V118.789C180.523 119.008 179.82 119.172 179.086 119.281C178.352 119.406 177.57 119.469 176.742 119.469C175.055 119.469 173.609 119.203 172.406 118.672C171.219 118.141 170.312 117.305 169.688 116.164C169.062 115.023 168.75 113.539 168.75 111.711V87.3359ZM211.406 84.875V119H203.18V84.875H211.406ZM221.672 84.875V91.2266H193.148V84.875H221.672ZM234.961 119.469C232.898 119.469 231.055 119.148 229.43 118.508C227.805 117.852 226.43 116.953 225.305 115.812C224.195 114.672 223.344 113.359 222.75 111.875C222.172 110.391 221.883 108.82 221.883 107.164V106.273C221.883 104.414 222.141 102.695 222.656 101.117C223.172 99.5234 223.938 98.1328 224.953 96.9453C225.969 95.7578 227.242 94.8359 228.773 94.1797C230.305 93.5078 232.086 93.1719 234.117 93.1719C235.914 93.1719 237.523 93.4609 238.945 94.0391C240.367 94.6172 241.57 95.4453 242.555 96.5234C243.555 97.6016 244.312 98.9062 244.828 100.438C245.359 101.969 245.625 103.688 245.625 105.594V108.805H224.906V103.859H237.914V103.25C237.93 102.406 237.781 101.688 237.469 101.094C237.172 100.5 236.734 100.047 236.156 99.7344C235.578 99.4219 234.875 99.2656 234.047 99.2656C233.188 99.2656 232.477 99.4531 231.914 99.8281C231.367 100.203 230.938 100.719 230.625 101.375C230.328 102.016 230.117 102.758 229.992 103.602C229.867 104.445 229.805 105.336 229.805 106.273V107.164C229.805 108.102 229.93 108.953 230.18 109.719C230.445 110.484 230.82 111.141 231.305 111.688C231.805 112.219 232.398 112.633 233.086 112.93C233.789 113.227 234.586 113.375 235.477 113.375C236.555 113.375 237.617 113.172 238.664 112.766C239.711 112.359 240.609 111.688 241.359 110.75L244.945 115.016C244.43 115.75 243.695 116.461 242.742 117.148C241.805 117.836 240.68 118.398 239.367 118.836C238.055 119.258 236.586 119.469 234.961 119.469ZM262.125 111.875C262.125 111.438 261.977 111.062 261.68 110.75C261.398 110.422 260.898 110.125 260.18 109.859C259.461 109.578 258.453 109.297 257.156 109.016C255.922 108.75 254.758 108.398 253.664 107.961C252.586 107.523 251.641 106.992 250.828 106.367C250.016 105.742 249.375 105 248.906 104.141C248.453 103.281 248.227 102.297 248.227 101.188C248.227 100.109 248.453 99.0938 248.906 98.1406C249.375 97.1719 250.055 96.3203 250.945 95.5859C251.852 94.8359 252.953 94.25 254.25 93.8281C255.547 93.3906 257.023 93.1719 258.68 93.1719C260.961 93.1719 262.93 93.5234 264.586 94.2266C266.242 94.9141 267.516 95.8828 268.406 97.1328C269.312 98.3672 269.766 99.7969 269.766 101.422H261.867C261.867 100.781 261.758 100.234 261.539 99.7812C261.336 99.3281 261 98.9844 260.531 98.75C260.062 98.5 259.438 98.375 258.656 98.375C258.109 98.375 257.609 98.4766 257.156 98.6797C256.719 98.8828 256.367 99.1641 256.102 99.5234C255.836 99.8828 255.703 100.305 255.703 100.789C255.703 101.133 255.781 101.445 255.938 101.727C256.109 101.992 256.367 102.242 256.711 102.477C257.055 102.695 257.492 102.898 258.023 103.086C258.555 103.258 259.195 103.414 259.945 103.555C261.648 103.867 263.242 104.312 264.727 104.891C266.211 105.469 267.414 106.289 268.336 107.352C269.273 108.414 269.742 109.844 269.742 111.641C269.742 112.766 269.484 113.805 268.969 114.758C268.453 115.695 267.711 116.523 266.742 117.242C265.773 117.945 264.609 118.492 263.25 118.883C261.891 119.273 260.359 119.469 258.656 119.469C256.234 119.469 254.188 119.039 252.516 118.18C250.844 117.305 249.578 116.211 248.719 114.898C247.875 113.57 247.453 112.227 247.453 110.867H254.812C254.844 111.648 255.031 112.289 255.375 112.789C255.734 113.289 256.211 113.656 256.805 113.891C257.398 114.125 258.086 114.242 258.867 114.242C259.586 114.242 260.18 114.141 260.648 113.938C261.133 113.734 261.5 113.461 261.75 113.117C262 112.758 262.125 112.344 262.125 111.875ZM286.805 93.6406V99.125H271.523V93.6406H286.805ZM274.734 87.3359H282.633V110.727C282.633 111.398 282.711 111.922 282.867 112.297C283.023 112.656 283.289 112.914 283.664 113.07C284.055 113.211 284.57 113.281 285.211 113.281C285.664 113.281 286.039 113.273 286.336 113.258C286.633 113.227 286.914 113.188 287.18 113.141V118.789C286.508 119.008 285.805 119.172 285.07 119.281C284.336 119.406 283.555 119.469 282.727 119.469C281.039 119.469 279.594 119.203 278.391 118.672C277.203 118.141 276.297 117.305 275.672 116.164C275.047 115.023 274.734 113.539 274.734 111.711V87.3359ZM298.289 93.6406V119H290.367V93.6406H298.289ZM289.898 87.1016C289.898 85.9766 290.305 85.0547 291.117 84.3359C291.93 83.6172 292.984 83.2578 294.281 83.2578C295.578 83.2578 296.633 83.6172 297.445 84.3359C298.258 85.0547 298.664 85.9766 298.664 87.1016C298.664 88.2266 298.258 89.1484 297.445 89.8672C296.633 90.5859 295.578 90.9453 294.281 90.9453C292.984 90.9453 291.93 90.5859 291.117 89.8672C290.305 89.1484 289.898 88.2266 289.898 87.1016ZM310.922 99.0547V119H303.023V93.6406H310.43L310.922 99.0547ZM309.984 105.453L308.133 105.5C308.133 103.562 308.367 101.836 308.836 100.32C309.305 98.7891 309.969 97.4922 310.828 96.4297C311.688 95.3672 312.711 94.5625 313.898 94.0156C315.102 93.4531 316.438 93.1719 317.906 93.1719C319.078 93.1719 320.148 93.3438 321.117 93.6875C322.102 94.0312 322.945 94.5859 323.648 95.3516C324.367 96.1172 324.914 97.1328 325.289 98.3984C325.68 99.6484 325.875 101.195 325.875 103.039V119H317.93V103.016C317.93 102 317.789 101.227 317.508 100.695C317.227 100.148 316.82 99.7734 316.289 99.5703C315.758 99.3672 315.109 99.2656 314.344 99.2656C313.531 99.2656 312.844 99.4219 312.281 99.7344C311.719 100.047 311.266 100.484 310.922 101.047C310.594 101.594 310.352 102.242 310.195 102.992C310.055 103.742 309.984 104.562 309.984 105.453ZM346.195 93.6406H353.367V118.016C353.367 120.359 352.828 122.344 351.75 123.969C350.672 125.609 349.164 126.852 347.227 127.695C345.305 128.555 343.055 128.984 340.477 128.984C339.336 128.984 338.172 128.836 336.984 128.539C335.797 128.258 334.688 127.836 333.656 127.273C332.625 126.711 331.758 126.016 331.055 125.188L334.359 120.547C335 121.266 335.805 121.875 336.773 122.375C337.742 122.891 338.883 123.148 340.195 123.148C341.336 123.148 342.289 122.945 343.055 122.539C343.836 122.133 344.43 121.539 344.836 120.758C345.242 119.992 345.445 119.062 345.445 117.969V99.6406L346.195 93.6406ZM329.344 106.625V106.133C329.344 104.211 329.578 102.461 330.047 100.883C330.531 99.2891 331.219 97.9219 332.109 96.7812C333.016 95.625 334.109 94.7344 335.391 94.1094C336.672 93.4844 338.117 93.1719 339.727 93.1719C341.461 93.1719 342.883 93.5078 343.992 94.1797C345.117 94.8359 346.016 95.7578 346.688 96.9453C347.375 98.1328 347.906 99.5234 348.281 101.117C348.672 102.695 349 104.398 349.266 106.227V106.812C349 108.531 348.633 110.156 348.164 111.688C347.711 113.203 347.117 114.547 346.383 115.719C345.648 116.891 344.727 117.812 343.617 118.484C342.523 119.141 341.211 119.469 339.68 119.469C338.086 119.469 336.648 119.148 335.367 118.508C334.102 117.867 333.016 116.969 332.109 115.812C331.219 114.656 330.531 113.297 330.047 111.734C329.578 110.172 329.344 108.469 329.344 106.625ZM337.242 106.133V106.625C337.242 107.578 337.328 108.461 337.5 109.273C337.688 110.086 337.969 110.805 338.344 111.43C338.719 112.039 339.18 112.516 339.727 112.859C340.289 113.203 340.945 113.375 341.695 113.375C342.836 113.375 343.758 113.133 344.461 112.648C345.164 112.164 345.672 111.477 345.984 110.586C346.297 109.695 346.43 108.648 346.383 107.445V105.594C346.414 104.562 346.344 103.656 346.172 102.875C346 102.078 345.727 101.414 345.352 100.883C344.992 100.352 344.508 99.9531 343.898 99.6875C343.305 99.4062 342.586 99.2656 341.742 99.2656C341.008 99.2656 340.359 99.4375 339.797 99.7812C339.234 100.125 338.766 100.609 338.391 101.234C338.016 101.844 337.727 102.57 337.523 103.414C337.336 104.242 337.242 105.148 337.242 106.133Z" fill="black"/>
<path d="M1134 0H1348C1356.28 0 1363 6.71573 1363 15V148C1363 156.284 1356.28 163 1348 163H1134V0Z" fill="#4A1FB3"/>
<path d="M1210.62 43.625H1286.38V119.375H1210.62V43.625Z" fill="white" fill-opacity="0.01"/>
<path d="M1276.91 72.0312V105.172C1276.91 107.787 1274.79 109.906 1272.17 109.906H1224.83C1222.21 109.906 1220.09 107.787 1220.09 105.172V57.8281C1220.09 55.2134 1222.21 53.0938 1224.83 53.0938H1261.12" stroke="white" stroke-width="7.24" stroke-linecap="round" stroke-linejoin="round"/>
<path d="M1232.72 75.1875L1248.5 87.8125L1276.91 53.0938" stroke="white" stroke-width="7.24" stroke-linecap="round" stroke-linejoin="round"/>
</svg>
